<svg version="1.2" xmlns="http://www.w3.org/2000/svg" viewBox="0 0 234 290" width="234" height="290">
	<title>Logo</title>
	<style>
		.s0 { fill: #fefffe } 
		.s1 { fill: #010018 } 
		.s2 { fill: #f4f5f2 } 
		.s3 { fill: #e07e2e } 
	</style>
	<g id="Background">
		<path id="Path 0" class="s0" d="m-48 145v165h330v-330h-330z"/>
		<path id="Path 1" fill-rule="evenodd" class="s1" d="m103 1.4c10.3 0.2 14.1 0.9 37.5 6.9 15.3 3.9 32.2 8.9 41 12.2 10.6 4 19.6 8.4 30.5 14.7 8.5 5 16.7 10.2 18.3 11.7 1.5 1.4 2.7 3.2 2.7 3.9 0 0.6-1.5 4-3.4 7.5-1.9 3.4-9.3 19.9-16.4 36.7-7.2 16.8-14.7 33.9-16.6 38-2 4.1-3.6 8.2-3.6 9-0.1 0.8 3.5 5.8 8 11 4.4 5.2 9.7 12.7 11.7 16.5 2.1 3.8 5 9.9 6.6 13.5 2.2 5.1 2.8 8.1 2.8 14 0.1 4.4-0.5 8.9-1.3 11-0.8 1.9-3 5.3-4.9 7.4-1.9 2.2-5.2 4.7-7.4 5.7-2.2 1-5.8 1.9-12 1.9l0.7 4.2c0.3 2.4 0.2 7-0.2 10.3-0.8 5.6-0.7 6.5 2.6 13.7 1.8 4.3 3.4 8.5 3.4 9.3 0 0.8-1.7 2.8-3.7 4.5-2.1 1.6-7.6 5-12.3 7.3-4.7 2.4-11.2 5.4-14.5 6.6-3.3 1.2-9.2 3-13 3.9-6 1.4-14.4 1.7-57 1.8-44.5 0.1-51.1 0.3-60.2 2-5.5 1-10 1.9-10 1.8 0.1-0.1 3.4-2.7 7.2-5.9 3.8-3.2 7.2-6 7.5-6.3 0.3-0.3-0.2-0.7-1-1.1-0.8-0.3-2.7-1.9-4.2-3.6-1.6-1.6-2.8-3.6-2.8-4.3 0-0.6 0.7-2.3 1.5-3.7 1.3-2.2 1.3-2.8-0.1-5.8-0.9-1.7-1.7-4.3-1.7-5.7 0-1.4 0.9-4.2 2.1-6.3 1.2-2 1.9-3.9 1.5-4.2-0.5-0.3-1.8-0.5-3-0.5-1.4 0-3.1-1.1-4.3-2.8-1.2-1.5-2.1-3.3-2-4 0-0.6 0.6-1.2 1.3-1.2 0.6 0 1.7 1 2.2 2.2 0.6 1.4 2.4 2.6 4.5 3.1 1.9 0.4 5.1 1.3 7 1.9 2.1 0.6 5.7 0.7 9 0.3 3.6-0.5 7-1.8 10-3.9 2.5-1.7 6.4-4.7 8.6-6.6 2.3-1.9 4.6-4.4 5.2-5.5 0.6-1.1 1.2-4 1.3-6.5 0.1-2.5-0.2-5.4-0.8-6.5-0.8-1.5-0.8-3.1 0.2-6 0.6-2.2 2.2-5.6 3.3-7.5 1.2-1.9 3-5 3.9-6.8 1-1.8 2.4-3.2 3.1-3.2 0.6 0 2-2.1 2.9-4.8 0.9-2.6 2.1-4.9 2.6-5.2 0.4-0.3 1.1-3.4 1.4-7 0.4-4.4 0.2-6.7-0.5-7.3-0.7-0.4-1.2-2.6-1.2-5 0-2.3-0.8-5.5-1.9-7.2-1-1.7-2.1-4.5-2.5-6.3-0.4-2.1-1.9-4.2-4.3-6.1-2.1-1.6-6.3-3.6-9.3-4.5-3-0.8-11.3-1.8-18.5-2-11-0.5-13.4-0.3-15.5 1.1-1.4 0.9-3.2 2.3-4 3.2-0.8 0.8-1.7 2.2-1.8 3-0.2 0.9-0.7 3.6-1.1 6.1-0.6 3.6-0.9 4.1-1.6 2.5-0.4-1.1-0.5-3.1-0.2-4.5 0.3-1.4 0.3-2.9-0.1-3.5-0.4-0.6-2.7-1.1-5.2-1.3-2.5-0.2-6.3-1.4-8.5-2.7-2.2-1.3-6.6-4.7-9.9-7.7-3.2-2.9-7.1-7.6-8.7-10.3-1.6-2.8-2.9-6-2.9-7.3 0-1.2 0.3-2.4 0.8-2.6 0.4-0.2 6.5 0.5 13.7 1.6 12.1 1.8 13.6 1.8 22 0.4 5-0.9 10-2.3 11.3-3.1 1.2-0.8 3.5-4.3 5.2-7.8 1.6-3.4 4.3-12 6.1-19.2 1.7-7.2 5.5-20.4 8.4-29.5 3-9.1 7.4-23 9.9-31 2.5-8 5.1-15.1 5.8-15.7 0.7-0.7 2.6-1.7 4.3-2.2 1.7-0.6 8.2-0.9 14.5-0.7zm-56.4 153.5l-3 4.3c-1.7 2.4-6.3 7.6-10.3 11.5-5.2 5.2-7.3 8-7.3 9.8 0 1.6 1 3.3 2.8 4.6 1.5 1.1 3.8 2.3 5.2 2.5 1.4 0.3 3.1 0.8 3.8 1 0.9 0.3 0.7 1.9-0.9 6.6-1.2 3.5-2.4 7.9-2.7 9.8-0.3 1.9-1.1 4.4-1.8 5.5-1.1 1.7-1 2.9 0.6 7.5 1.1 3 1.9 6.5 2 7.7 0 1.3-0.4 2.3-1 2.3-0.5 0-1.3-1.2-1.6-2.8-0.3-1.5-1.3-4.7-2.2-7.2-1.3-3.9-1.4-5.1-0.2-9 0.7-2.5 1.8-6.3 2.5-8.5 0.7-2.2 1.5-5.2 1.9-6.8 0.5-2.4 0.2-2.9-3.6-4.5-2.4-1-5-2.7-5.8-3.7-0.8-1-1.5-3.4-1.4-5.4 0-3.1 0.9-4.4 6.1-9.1 3.3-3 6.8-6.7 7.7-8.3 1.1-1.9 1.3-3.1 0.6-4.2-0.5-0.8-0.8-1.8-0.6-2.3 0.2-0.4 2.4-0.8 9.2-1.3z"/>
		<path id="Path 2" class="s2" d="m75 284.7c3.6 0.2 9.7 0.2 13.5 0 3.8-0.2 0.9-0.3-6.5-0.3-7.4 0-10.6 0.1-7 0.3zm41.5 1c2.2 0.2 6 0.2 8.5 0 2.5-0.2 0.7-0.4-4-0.4-4.7 0-6.7 0.2-4.5 0.4z"/>
		<path id="Path 3" class="s3" d="m46.5 58.4c-0.9 2.1-1.6 4.4-1.5 5 0 0.6-0.4 1.6-0.9 2.1-0.5 0.5-1.4 2.8-1.9 5-0.9 3.3-0.8 4.7 0.7 8 1 2.2 2.3 5.2 3 6.8 0.6 1.5 1.4 2.7 1.9 2.7 0.4 0 1.7-0.7 2.9-1.7 1.2-1 2.2-2.6 2.3-3.5 0-1 0.5-1.8 1-1.8 0.5 0 1-2.5 1-5.5 0-3-0.5-5.7-1-6-0.5-0.3-1-1.5-1-2.7 0-1.3-1.1-4.5-2.4-7.3l-2.4-5zm171.1 58.4c-0.4 1.2-1.2 2.3-1.9 2.3-0.7 0.1-1.7 0.2-2.3 0.3-0.5 0.1-1.9 1-3 2.1-1.2 1.1-3.2 2.9-4.6 4-1.3 1.1-3 3.3-3.6 4.8-0.7 1.5-1.3 4.5-1.3 6.7 0 3.4 0.4 4 2 4 1.1 0 3.7-1.1 5.8-2.4 2.1-1.4 4.4-4 5.1-5.8 0.8-1.8 2.3-5.1 3.3-7.3 1.2-2.4 1.8-5.4 1.5-7.5-0.3-2.9-0.5-3.1-1-1.2z"/>
		<path id="Path 4" class="s0" d="m132.9 222.6c-0.2 0.3-4.7 1.1-9.9 1.7l-9.4 1.2c-0.1 6.4-0.5 7.1-3.1 7.8-1.7 0.5-3.8 1.3-4.8 1.8-0.9 0.5-2.4 0.7-3.2 0.4-0.9-0.3-1.7 0.3-2.1 1.5-0.4 1.1-1.7 2.2-3 2.5-1.3 0.3-3.1 0.1-3.9-0.5q-1.5-1-2 0c-0.3 0.6-1.5 1-2.8 1-1.2 0-3.1-0.6-4.2-1.5-1.1-0.8-2.9-1.5-4-1.5-1.1 0-4.7 1.3-8 3-3.3 1.7-9.4 3.7-13.5 4.6-4.1 0.9-9.1 1.3-11 1.1-3-0.5-3.7-0.2-4.8 1.9-0.6 1.3-1.2 3.3-1.2 4.4 0 1.1 0.8 3.6 1.7 5.6 1.7 3.4 1.7 3.7 0 6.5-1.7 2.9-1.7 2.9 1.3 5.9 1.7 1.6 3.3 3 3.7 3 0.5 0 3.7-2.5 7.3-5.6 3.6-3.1 8.3-6.8 10.5-8.4 2.2-1.6 10.7-5.3 19-8.3 8.2-3 17.8-7.1 21.2-9.1 3.5-2 7-3.6 7.8-3.6 0.8 0 3.2-1.5 5.2-3.3 2.1-1.8 5.6-4.5 7.8-5.9 2.2-1.5 4.8-3.6 5.9-4.7 1-1.2 1.4-2.1 0.9-2.1-0.5 0-1.2 0.3-1.4 0.6z"/>
		<path id="Path 5" class="s3" d="m107.2 64.1c-0.9 1.7-2.8 4.8-4.1 6.8-2.1 3.1-2.3 4.7-2.3 12.6 0.1 5 0.3 9.1 0.6 9.3 0.4 0.1 2.6-1.3 5-3 2.5-1.8 5.1-4.4 5.8-5.6 1.1-2 1.1-3.2-0.1-7.5-0.7-2.9-1.4-7.6-1.4-10.4 0-2.9-0.4-5.3-0.9-5.3-0.5 0-1.6 1.4-2.6 3.1zm58.8 22.2c-1.1 2.8-1.3 2.9-1.6 0.9-0.2-2.1-0.5-2-4.3 1.8-2.3 2.2-4.4 5.2-4.7 6.8-0.4 1.5-0.4 4.5-0.1 6.7 0.4 2.2 1 4.4 1.4 4.8 0.5 0.4 2.3-0.5 4.2-2 1.8-1.5 3.9-4.1 4.6-5.8 0.6-1.6 1.5-6 1.9-9.7 0.3-3.8 0.5-6.8 0.3-6.8-0.2 0-0.9 1.5-1.7 3.3z"/>
	</g>
</svg>